<svg width="21" height="20" viewBox="0 0 21 20" fill="none" xmlns="http://www.w3.org/2000/svg">
<path d="M17.5268 7.9422L10.9643 14.1922C10.9033 14.2503 10.831 14.2964 10.7513 14.3279C10.6716 14.3593 10.5862 14.3755 10.5 14.3755C10.4138 14.3755 10.3284 14.3593 10.2487 14.3279C10.169 14.2964 10.0966 14.2503 10.0357 14.1922L3.4732 7.9422C3.35006 7.82492 3.28088 7.66586 3.28088 7.50001C3.28088 7.33416 3.35006 7.1751 3.4732 7.05782C3.59634 6.94055 3.76335 6.87466 3.9375 6.87466C4.11164 6.87466 4.27866 6.94055 4.4018 7.05782L10.5 12.8664L16.5982 7.05782C16.6592 6.99976 16.7316 6.95369 16.8112 6.92227C16.8909 6.89084 16.9763 6.87466 17.0625 6.87466C17.1487 6.87466 17.2341 6.89084 17.3138 6.92227C17.3934 6.95369 17.4658 6.99976 17.5268 7.05782C17.5878 7.11589 17.6361 7.18483 17.6691 7.2607C17.7021 7.33657 17.7191 7.41789 17.7191 7.50001C17.7191 7.58213 17.7021 7.66345 17.6691 7.73932C17.6361 7.81519 17.5878 7.88413 17.5268 7.9422Z" fill="#03045E"/>
</svg>
