<svg width="28" height="28" viewBox="0 0 28 28" fill="none" xmlns="http://www.w3.org/2000/svg">
<path d="M19.995 6.49972C19.995 6.79639 19.907 7.0864 19.7422 7.33307C19.5774 7.57975 19.3431 7.77201 19.069 7.88554C18.7949 7.99907 18.4933 8.02877 18.2024 7.9709C17.9114 7.91302 17.6441 7.77016 17.4343 7.56038C17.2246 7.3506 17.0817 7.08333 17.0238 6.79235C16.966 6.50138 16.9957 6.19978 17.1092 5.92569C17.2227 5.6516 17.415 5.41734 17.6617 5.25251C17.9083 5.08769 18.1983 4.99972 18.495 4.99972C18.8928 4.99972 19.2744 5.15775 19.5557 5.43906C19.837 5.72036 19.995 6.10189 19.995 6.49972ZM23.9375 17.846C20.555 21.221 15.26 22.6397 8.14751 22.0897C8.34667 23.5764 8.62584 25.1418 8.98501 26.786C9.04149 27.045 8.99276 27.316 8.84954 27.5391C8.70631 27.7623 8.48032 27.9194 8.22126 27.976C8.15069 27.9918 8.07858 27.9998 8.00626 27.9997C7.7785 27.9993 7.55771 27.9211 7.38041 27.7781C7.20312 27.6352 7.07994 27.436 7.03126 27.2135C6.62209 25.3443 6.31417 23.5676 6.10751 21.8835C4.42417 21.676 2.64876 21.368 0.781256 20.9597C0.523328 20.9019 0.298784 20.7443 0.156716 20.5214C0.0146485 20.2985 -0.0333855 20.0284 0.0231158 19.7702C0.0796172 19.512 0.236057 19.2866 0.458234 19.1434C0.680411 19.0002 0.950249 18.9508 1.20876 19.006C2.85126 19.3643 4.41542 19.6435 5.90126 19.8435C5.35251 12.7322 6.77626 7.43847 10.1513 4.05722C15.62 -1.42778 24.2988 0.112218 25.9825 0.477218C26.3585 0.559156 26.7031 0.747384 26.9752 1.01951C27.2473 1.29163 27.4356 1.6362 27.5175 2.01222C27.8825 3.69597 29.4238 12.3747 23.9375 17.846ZM22.0625 16.8597C19.3119 16.4442 16.7668 15.1583 14.8004 13.1906C12.8341 11.2228 11.5499 8.67686 11.1363 5.92597C8.44001 8.96972 7.37001 13.7085 7.92251 20.0685C14.2838 20.6247 19.0225 19.5547 22.0663 16.8597H22.0625ZM25.5625 2.43597C23.5387 2.01757 21.4643 1.90047 19.4063 2.08847C16.8763 2.33847 14.7313 3.06722 13 4.27097C13.0688 7.09391 14.2205 9.78229 16.2168 11.7795C18.213 13.7766 20.9009 14.9296 23.7238 14.9997C24.9263 13.2685 25.66 11.1247 25.9063 8.59347C26.0935 6.5352 25.9777 4.4606 25.5625 2.43597Z" fill="#00B4D8"/>
</svg>
