<svg width="81" height="81" viewBox="0 0 81 81" fill="none" xmlns="http://www.w3.org/2000/svg">
<path d="M77.7822 38.4845C77.4593 37.9172 77.0266 37.42 76.5094 37.0218C75.9923 36.6236 75.4009 36.3324 74.77 36.1652C72.481 35.576 70.1156 35.3392 67.7552 35.4628C69.0209 29.1821 68.0716 24.2146 67.1034 21.2688C66.7175 20.0588 65.8948 19.0358 64.7956 18.3994C63.6965 17.7629 62.3997 17.5587 61.1582 17.8263C57.9385 18.5434 54.877 19.843 52.1248 21.6612C50.1091 17.5436 47.1744 13.9442 43.547 11.1407C42.668 10.4814 41.5988 10.125 40.5 10.125C39.4012 10.125 38.3321 10.4814 37.453 11.1407C33.8249 13.9434 30.8899 17.543 28.8752 21.6612C26.123 19.843 23.0615 18.5434 19.8418 17.8263C18.6003 17.5587 17.3035 17.7629 16.2044 18.3994C15.1052 19.0358 14.2825 20.0588 13.8966 21.2688C12.9473 24.2146 11.9981 29.179 13.2448 35.4628C10.8844 35.3392 8.51901 35.576 6.23005 36.1652C5.59909 36.3324 5.00776 36.6236 4.49058 37.0218C3.9734 37.42 3.54074 37.9172 3.21786 38.4845C2.87995 39.0656 2.66116 39.7082 2.57424 40.3747C2.48732 41.0413 2.53402 41.7185 2.71161 42.3668C3.78422 46.344 7.07801 53.9093 17.0543 59.8704C27.0306 65.8315 35.795 65.8125 40.5158 65.8125C45.2366 65.8125 54.0169 65.8125 63.9299 59.8704C73.9062 53.9093 77.2 46.344 78.2726 42.3668C78.4525 41.7195 78.5018 41.0429 78.4176 40.3763C78.3335 39.7098 78.1174 39.0667 77.7822 38.4845ZM18.7123 22.8255C18.7161 22.8098 18.7257 22.7962 18.7392 22.7874C18.7528 22.7785 18.7691 22.7752 18.785 22.7781C21.7292 23.4432 24.5075 24.6994 26.9515 26.4705C25.8387 30.111 25.286 33.8995 25.3125 37.7061C25.3125 43.6356 26.5054 48.4639 28.195 52.3494C25.793 49.9453 23.7146 47.2383 22.0124 44.2969C16.3107 34.368 17.4973 26.5781 18.7123 22.8255ZM19.6615 55.5261C11.2229 50.4889 8.48602 44.3127 7.59376 41.0379C9.92193 40.4647 12.3378 40.3391 14.7129 40.6677C15.5058 42.7916 16.4742 44.8459 17.608 46.8091C20.3919 51.6088 24.0392 55.8524 28.3658 59.3262C25.3063 58.4465 22.3756 57.1689 19.6488 55.5261H19.6615ZM40.5 60.2437C37.5479 58.0479 30.375 51.3116 30.375 37.7061C30.375 24.2684 37.4562 17.4783 40.5 15.1875C43.5438 17.4846 50.625 24.2747 50.625 37.7125C50.625 51.3116 43.4521 58.0479 40.5 60.2437ZM54.0485 26.4705C56.4928 24.7005 59.2711 23.4454 62.215 22.7812C62.2309 22.7784 62.2473 22.7817 62.2608 22.7905C62.2743 22.7993 62.284 22.813 62.2877 22.8287C63.5027 26.5781 64.6893 34.368 58.9876 44.2969C57.2869 47.2422 55.2085 49.9525 52.805 52.3589C54.4947 48.4798 55.6875 43.6451 55.6875 37.7156C55.7149 33.9058 55.1623 30.114 54.0485 26.4705ZM73.4063 41.0442C72.5298 44.2874 69.7992 50.4763 61.3543 55.5261C58.6274 57.1678 55.6967 58.4444 52.6373 59.323C56.964 55.8493 60.6112 51.6056 63.3952 46.806C64.529 44.8427 65.4974 42.7885 66.2903 40.6645C68.6647 40.3374 71.0796 40.4651 73.4063 41.0411V41.0442Z" fill="#03045E"/>
</svg>
