<svg width="29" height="29" viewBox="0 0 29 29" fill="none" xmlns="http://www.w3.org/2000/svg">
<path d="M26.0162 24.7338L20.3442 19.063C21.9882 17.0893 22.8079 14.5578 22.633 11.9951C22.458 9.43235 21.3018 7.03575 19.4048 5.30381C17.5078 3.57187 15.0162 2.63794 12.4482 2.69631C9.88014 2.75467 7.43349 3.80083 5.61716 5.61716C3.80083 7.43349 2.75467 9.88014 2.69631 12.4482C2.63794 15.0162 3.57187 17.5078 5.30381 19.4048C7.03575 21.3018 9.43235 22.458 11.9951 22.633C14.5578 22.8079 17.0893 21.9882 19.063 20.3442L24.7338 26.0162C24.818 26.1004 24.918 26.1672 25.028 26.2127C25.138 26.2583 25.2559 26.2818 25.375 26.2818C25.4941 26.2818 25.612 26.2583 25.722 26.2127C25.832 26.1672 25.932 26.1004 26.0162 26.0162C26.1004 25.932 26.1672 25.832 26.2127 25.722C26.2583 25.612 26.2818 25.4941 26.2818 25.375C26.2818 25.2559 26.2583 25.138 26.2127 25.028C26.1672 24.918 26.1004 24.818 26.0162 24.7338ZM4.53126 12.6875C4.53126 11.0744 5.00962 9.49743 5.90584 8.15614C6.80206 6.81486 8.07589 5.76945 9.56625 5.15212C11.0566 4.53479 12.6966 4.37327 14.2787 4.68798C15.8609 5.0027 17.3142 5.7795 18.4549 6.92017C19.5955 8.06085 20.3723 9.51415 20.687 11.0963C21.0018 12.6785 20.8402 14.3184 20.2229 15.8088C19.6056 17.2991 18.5602 18.573 17.2189 19.4692C15.8776 20.3654 14.3007 20.8438 12.6875 20.8438C10.5251 20.8414 8.4519 19.9813 6.92282 18.4522C5.39375 16.9231 4.53366 14.85 4.53126 12.6875Z" fill="#03045E"/>
</svg>
